<svg version="1.1" id="Layer_1" xmlns="http://www.w3.org/2000/svg" xmlns:xlink="http://www.w3.org/1999/xlink" x="0px" y="0px"
	 width="100%" viewBox="0 0 1024 544" enable-background="new 0 0 1024 544" xml:space="preserve">
<path fill="#000000" opacity="1.000000" stroke="none" 
	d="
M30.478085,312.460571 
	C26.746355,292.059296 26.903797,271.969513 28.663317,251.845139 
	C31.528952,219.069626 41.030136,188.201950 56.811050,159.453720 
	C88.561775,101.613159 136.066864,62.787231 198.938202,42.434235 
	C228.726837,32.790924 259.203461,30.005054 290.094757,31.952068 
	C318.525238,33.743977 345.840668,41.086201 371.810364,52.898689 
	C421.690765,75.587128 459.931396,111.020569 486.246918,159.051163 
	C498.626068,181.645309 506.669037,205.791489 511.650482,231.200089 
	C515.641785,251.558151 516.174988,271.960114 515.056213,292.337372 
	C513.504211,320.603699 506.439728,347.818787 494.875977,373.748322 
	C480.346039,406.329071 459.757904,434.507935 432.901825,458.002441 
	C399.442261,487.273895 360.910400,506.169220 317.147156,514.464233 
	C290.041931,519.601807 262.833923,520.171936 235.669449,516.109436 
	C187.846573,508.957275 145.693085,489.331055 109.420944,457.152374 
	C77.148819,428.522369 54.479748,393.547668 40.236691,353.028625 
	C35.664116,340.020447 32.284569,326.628845 30.478085,312.460571 
M494.400055,240.064560 
	C490.998199,218.562164 484.888336,197.864136 475.402161,178.260422 
	C453.585785,133.175766 420.727692,98.590271 376.204315,75.466530 
	C321.038452,46.815502 263.258759,42.176109 204.174072,59.950012 
	C156.478775,74.297752 117.888664,102.552544 88.621140,143.060364 
	C54.531254,190.242630 41.447121,243.065903 47.373817,300.682098 
	C50.460400,330.688141 59.638653,358.982758 74.483452,385.213470 
	C94.683289,420.906555 122.541969,449.273438 158.052628,469.970551 
	C181.583847,483.685547 206.866714,492.772278 233.634598,497.443573 
	C249.576309,500.225586 265.769714,500.345917 281.943176,499.984131 
	C302.406860,499.526398 322.322021,495.767487 341.649689,489.326813 
	C380.891052,476.250153 414.358917,454.260284 441.643860,423.050842 
	C466.356384,394.783813 482.900146,362.253693 491.495239,325.791931 
	C498.100830,297.769897 498.567963,269.398254 494.400055,240.064560 
z"/>
<path fill="#000000" opacity="1.000000" stroke="none" 
	d="
M732.669067,334.989807 
	C732.669250,300.178589 732.664734,265.866028 732.674255,231.553452 
	C732.676086,225.060547 732.845642,224.838928 739.437805,224.827759 
	C769.919312,224.776123 800.400940,224.713455 830.882263,224.775650 
	C845.758362,224.806015 856.264404,235.421722 856.356750,250.315048 
	C856.420776,260.641663 856.405212,270.969482 856.330261,281.296051 
	C856.228027,295.379028 846.630676,305.072723 832.583069,305.412994 
	C830.450867,305.464630 828.262329,305.304993 826.276855,306.636902 
	C826.607788,309.170959 828.525635,310.673523 829.977417,312.408386 
	C837.670471,321.602081 845.437561,330.733856 853.156616,339.905884 
	C854.766724,341.819092 856.732971,343.831848 855.654297,346.552795 
	C854.493164,349.481537 851.604187,347.914673 849.474243,348.333160 
	C836.269775,350.927551 827.356201,345.442535 819.988159,334.542511 
	C813.681213,325.212341 805.605103,317.083069 798.386475,308.360474 
	C796.639709,306.249695 794.578979,305.361176 791.878784,305.376282 
	C780.885742,305.437714 769.891541,305.478485 758.899353,305.368225 
	C755.466980,305.333801 754.150452,306.677368 754.182800,310.096375 
	C754.286804,321.088593 754.107361,332.083893 754.255066,343.075104 
	C754.305908,346.861359 753.118225,348.782043 749.107666,348.341858 
	C747.955688,348.215454 746.777893,348.325470 745.611938,348.324615 
	C732.668213,348.314880 732.668213,348.314789 732.669067,334.989807 
M808.472900,246.877060 
	C792.501160,246.723770 776.528931,246.610367 760.558105,246.390564 
	C756.302856,246.331985 754.055603,247.751236 754.168640,252.455093 
	C754.380432,261.270691 754.325195,270.096039 754.199158,278.914734 
	C754.146545,282.594086 755.770813,283.975037 759.293518,283.965729 
	C782.759338,283.903778 806.225342,283.894012 829.691284,283.901947 
	C832.912109,283.903046 834.674438,282.697632 834.645630,279.211212 
	C834.571472,270.225006 834.630127,261.237732 834.623047,252.250870 
	C834.619751,248.125290 832.632812,246.183289 828.415405,246.359360 
	C822.101196,246.623047 815.779724,246.713516 808.472900,246.877060 
z"/>
<path fill="#000000" opacity="1.000000" stroke="none" 
	d="
M994.939575,238.376144 
	C996.827637,242.597733 997.375732,246.636307 997.364319,250.881409 
	C997.282776,281.205841 997.225281,311.531097 997.408142,341.854645 
	C997.437744,346.757935 996.185608,348.973450 990.975098,348.401154 
	C987.517090,348.021423 983.976013,348.159058 980.488342,348.354340 
	C976.779907,348.561981 975.523865,347.020477 975.581604,343.375183 
	C975.745300,333.047394 975.474304,322.711456 975.718384,312.386810 
	C975.822632,307.976227 974.668884,306.205261 969.864380,306.258057 
	C947.539978,306.503418 925.211670,306.376617 902.884827,306.421570 
	C895.568909,306.436310 895.268677,306.760223 895.247131,314.027222 
	C895.218933,323.524384 895.103149,333.024628 895.306152,342.517548 
	C895.395569,346.699921 894.186523,348.429413 889.658447,348.436218 
	C873.668457,348.460175 873.668213,348.610107 873.665039,332.507690 
	C873.659607,304.682343 874.041687,276.849213 873.482605,249.034988 
	C873.213196,235.633896 884.946411,224.656876 897.894409,224.697510 
	C922.553772,224.774902 947.213745,224.647919 971.872986,224.744736 
	C981.949280,224.784302 989.920227,228.800797 994.939575,238.376144 
M927.500000,246.900467 
	C918.674622,246.775833 909.849182,246.654861 901.023865,246.524826 
	C897.240051,246.469070 895.091919,247.865738 895.208740,252.104431 
	C895.387756,258.597321 895.232727,265.099030 895.247070,271.596954 
	C895.276123,284.782990 895.283752,284.777679 908.275574,284.776611 
	C928.935913,284.774902 949.596863,284.699585 970.256104,284.852661 
	C974.388489,284.883301 975.847717,283.495331 975.729370,279.352539 
	C975.477356,270.528595 975.594116,261.693420 975.608459,252.862900 
	C975.615723,248.370605 973.798950,246.001297 968.961670,246.400620 
	C955.489868,247.512695 941.987000,246.668961 927.500000,246.900467 
z"/>
<path fill="#000000" opacity="1.000000" stroke="none" 
	d="
M560.639465,311.000427 
	C560.402527,283.674194 561.126343,256.842743 560.216125,230.020981 
	C560.095642,226.471008 561.554016,224.728149 565.176331,224.782516 
	C569.008118,224.840042 572.849670,224.923599 576.672424,224.721375 
	C580.867004,224.499481 582.248474,226.490692 582.219971,230.423157 
	C582.124573,243.587997 582.335571,256.756653 582.101501,269.917999 
	C582.021240,274.428406 583.390137,276.239532 588.052979,275.999023 
	C594.370178,275.673096 600.727295,275.625427 607.043091,275.942169 
	C611.358215,276.158539 614.182861,274.487457 616.829163,271.281158 
	C628.280884,257.406067 639.992432,243.745087 651.403015,229.836853 
	C654.400085,226.183731 657.569519,224.162247 662.448608,224.665085 
	C666.242004,225.056030 670.107056,224.726898 673.939575,224.773727 
	C675.743469,224.795776 677.846741,224.476486 678.790283,226.516449 
	C679.803833,228.707870 679.000549,230.658585 677.482300,232.471176 
	C671.174988,240.001434 664.960632,247.609512 658.657349,255.143127 
	C651.069824,264.211700 643.499451,273.296692 635.768555,282.242310 
	C632.987061,285.460815 632.941467,287.872498 635.840393,291.257599 
	C649.492798,307.199738 662.877075,323.371552 676.348938,339.468201 
	C677.411682,340.737946 678.706848,341.902527 679.017395,343.623260 
	C679.491760,346.251984 679.111023,348.323608 675.706787,348.300995 
	C669.707825,348.261139 663.708191,348.248352 657.709351,348.293274 
	C654.927368,348.314117 653.709229,346.252197 652.217773,344.482910 
	C640.082214,330.087280 627.901062,315.729767 615.835144,301.276062 
	C613.971741,299.043884 611.991577,297.872101 609.035828,297.923096 
	C601.705200,298.049591 594.368530,298.088867 587.039551,297.924896 
	C583.314514,297.841583 582.108337,299.380890 582.143250,302.983398 
	C582.270813,316.147736 582.014221,329.317535 582.270264,342.478088 
	C582.361816,347.180725 580.646240,348.856873 576.161987,348.337097 
	C571.266174,347.769592 565.086609,350.473938 561.747803,347.015625 
	C558.636353,343.792816 560.921570,337.774353 560.770996,332.996338 
	C560.545349,325.836792 560.666931,318.666290 560.639465,311.000427 
z"/>
<path fill="#000000" opacity="1.000000" stroke="none" 
	d="
M709.790527,224.760651 
	C714.589417,224.301956 716.188599,226.303696 716.179688,230.566833 
	C716.101135,268.066528 716.101929,305.566528 716.184326,343.066193 
	C716.192566,346.812012 715.136841,348.665161 711.068176,348.373688 
	C707.419922,348.112335 703.723328,348.097748 700.076111,348.361328 
	C695.791992,348.670868 694.596802,346.724335 694.703064,342.763153 
	C694.904114,335.268433 694.776245,327.764740 694.775696,320.264771 
	C694.773376,290.931549 694.767151,261.598297 694.763184,232.265060 
	C694.762146,224.823654 694.776245,224.808960 702.316650,224.771591 
	C704.649902,224.760025 706.983276,224.763351 709.790527,224.760651 
z"/>
<path fill="#000000" opacity="1.000000" stroke="none" 
	d="
M321.139343,272.198425 
	C322.308258,298.179382 304.717163,319.259094 280.948822,323.602692 
	C245.094223,330.154968 218.290756,298.398285 223.323227,267.837006 
	C226.766495,246.926529 238.784332,233.112747 258.918610,227.080276 
	C288.609589,218.184479 318.857422,240.152313 321.139343,272.198425 
z"/>
<path fill="#000000" opacity="1.000000" stroke="none" 
	d="
M208.058136,390.094543 
	C200.472824,385.785370 193.529037,381.129944 187.773941,375.082245 
	C184.991211,372.158081 182.880203,372.304169 179.566086,373.851074 
	C160.939133,382.545288 142.283798,382.762329 123.907738,373.084717 
	C105.488235,363.384247 97.245934,347.312897 96.009155,327.170990 
	C95.373077,316.811981 96.843262,306.595123 99.088844,296.491943 
	C99.335327,295.382935 99.476463,294.154144 101.027496,293.515778 
	C103.512634,294.570343 102.855446,297.040680 102.988838,298.984131 
	C103.757660,310.185211 108.648895,319.719330 114.819794,328.747742 
	C115.564651,329.837555 116.508820,330.815430 117.471825,331.727814 
	C123.194633,337.149872 124.864845,336.662659 126.989357,329.322845 
	C129.303345,321.328461 132.963425,314.052917 139.996735,309.158020 
	C143.550598,306.684692 144.802628,304.023346 144.017654,299.575806 
	C143.429718,296.244598 141.909973,292.424805 144.606873,288.706787 
	C148.167953,291.137756 148.717865,294.670685 149.105545,298.251526 
	C149.448303,301.417542 150.382812,302.902313 154.238052,302.071259 
	C171.458878,298.358978 184.684723,303.924927 194.039139,318.373016 
	C202.611526,331.613251 202.521164,350.597443 193.222366,363.109863 
	C190.126602,367.275513 190.541382,369.307526 194.690948,372.093994 
	C213.130676,384.476318 232.652191,394.069244 254.990555,396.942169 
	C257.598358,397.277527 260.268036,397.776825 261.407257,401.047852 
	C258.111694,403.930267 254.167587,403.596954 250.515518,403.332428 
	C238.954208,402.495026 227.983307,399.296631 217.528732,394.285004 
	C214.529175,392.847076 211.441696,391.592590 208.058136,390.094543 
z"/>
<path fill="#000000" opacity="1.000000" stroke="none" 
	d="
M369.721710,191.300064 
	C380.454834,203.069550 386.934479,216.536987 390.608673,232.062241 
	C386.981995,231.680374 386.219818,229.447281 385.404694,227.582077 
	C378.878174,212.647858 369.106934,199.751282 359.747101,186.607346 
	C353.794098,178.247650 345.112885,173.124695 336.355774,168.399597 
	C329.490295,164.695145 322.112579,161.942459 314.976532,158.735519 
	C312.862000,157.785248 310.820160,156.623886 307.904175,157.186340 
	C303.570892,175.794403 291.044861,185.773773 272.350708,185.795105 
	C252.983810,185.817200 239.434647,175.691864 232.951401,156.792938 
	C227.806473,157.669144 223.019150,159.892151 217.590622,159.240433 
	C217.735138,155.050613 220.804703,153.352142 223.651016,152.797073 
	C231.337128,151.298203 232.934311,146.430740 233.790970,139.411942 
	C236.614410,116.278687 253.852661,96.976990 276.267456,91.663269 
	C289.973663,88.414055 303.009857,91.514664 315.291016,98.087585 
	C323.709717,102.593323 331.196045,108.411552 338.421753,114.585587 
	C339.380157,115.404495 340.640320,116.197159 340.160034,118.383690 
	C324.143768,112.109108 308.027161,107.416145 291.851959,116.458794 
	C291.798859,119.217743 293.159393,119.795738 294.131622,120.639656 
	C301.408783,126.956490 306.547485,134.550064 307.736176,144.305374 
	C308.202148,148.129074 309.972260,149.955307 313.697662,151.092392 
	C328.983887,155.758041 341.861572,164.422836 353.163116,175.619263 
	C358.478485,180.885162 364.042053,185.900513 369.721710,191.300064 
z"/>
<path fill="#000000" opacity="1.000000" stroke="none" 
	d="
M347.938843,352.766205 
	C338.124756,324.790863 359.678833,300.167908 384.968750,299.669769 
	C389.604248,299.578461 391.911316,298.644470 392.778290,293.948975 
	C393.193146,291.702240 393.860596,289.062866 396.502747,287.408752 
	C398.025909,290.290924 398.506897,293.344208 397.787506,296.146820 
	C396.637268,300.628021 398.776917,302.591339 402.176331,304.828918 
	C419.968872,316.540558 429.540161,333.159210 430.135193,354.492767 
	C430.705292,374.931488 421.452393,390.298889 404.444366,401.178772 
	C395.110474,407.149536 384.861481,411.068848 374.230011,414.039124 
	C373.127045,414.347290 371.985382,414.804108 370.916718,413.621521 
	C371.231903,411.249512 373.541168,410.959595 375.045532,409.850952 
	C385.483948,402.158173 393.681854,392.770508 397.148621,379.972107 
	C398.850464,373.689484 397.771057,372.571533 391.639130,373.973450 
	C382.186462,376.134644 372.967438,375.760529 364.566772,370.689941 
	C360.247467,368.082886 357.597198,369.879547 354.489532,372.431152 
	C344.088776,380.970825 334.377655,390.587494 320.927765,394.500732 
	C317.509003,395.495361 314.103455,397.221771 310.597015,394.849518 
	C310.692993,392.011505 312.932465,391.455261 314.631714,390.723846 
	C324.424255,386.508789 333.110291,380.155487 343.150482,376.350922 
	C347.799530,374.589203 350.507965,369.788849 354.424164,366.726196 
	C356.102844,365.413391 355.221863,363.697937 354.077087,362.320343 
	C351.722229,359.486664 349.749908,356.409851 347.938843,352.766205 
z"/>
<path fill="#000000" opacity="1.000000" stroke="none" 
	d="
M157.328064,210.371277 
	C165.560379,196.070694 175.065842,183.461060 189.980972,174.173019 
	C190.264816,178.393021 188.359863,179.960220 187.006378,181.678482 
	C178.366409,192.646912 168.520752,202.782715 162.389481,215.513977 
	C156.845764,227.025208 150.602951,238.277893 147.525040,250.843353 
	C147.474030,251.051636 147.030609,251.163788 146.372986,251.560455 
	C146.566360,236.830688 149.350449,223.120514 157.328064,210.371277 
z"/>
<path fill="#000000" opacity="1.000000" stroke="none" 
	d="
M286.149536,401.747131 
	C282.579651,402.766357 279.313110,404.035156 275.880341,401.240509 
	C279.350159,398.126709 283.189087,398.633911 286.776154,399.345154 
	C288.856354,399.757629 287.438843,400.932556 286.149536,401.747131 
z"/>
</svg>