<svg version="1.1" id="Layer_1" xmlns="http://www.w3.org/2000/svg" xmlns:xlink="http://www.w3.org/1999/xlink" x="0px" y="0px"
	 width="100%" viewBox="0 0 512 512" enable-background="new 0 0 512 512" xml:space="preserve">
<path fill="#000000" opacity="1.000000" stroke="none" 
	d="
M391.718872,47.208626 
	C437.626465,76.516212 470.901031,115.900002 491.499176,166.040390 
	C499.702362,186.008728 505.123077,206.720673 507.881165,227.974548 
	C510.300690,246.619705 510.072998,265.481781 508.432983,284.294159 
	C504.689972,327.230927 490.008057,366.267639 465.884491,401.670624 
	C441.495758,437.462708 409.680542,465.053436 370.850403,484.460907 
	C351.385406,494.189606 330.966125,501.103577 309.729279,505.674561 
	C284.607178,511.081848 259.175049,511.917084 233.744354,509.313171 
	C171.811310,502.971649 119.305397,476.966248 76.492798,431.805328 
	C52.472252,406.467224 34.866299,377.116730 22.863359,344.246094 
	C10.657732,310.820435 5.983225,276.265961 9.017654,241.149002 
	C15.629211,164.634598 49.936756,102.924194 111.819588,57.079079 
	C138.061020,37.638432 167.348236,24.532936 199.050552,16.429180 
	C227.335434,9.198993 255.932220,8.089189 284.722046,10.658084 
	C323.161743,14.088025 358.586517,26.855608 391.718872,47.208626 
M46.542747,353.058838 
	C55.735962,374.320068 67.880241,393.747009 83.107269,411.191010 
	C108.194000,439.930176 138.373596,461.441528 173.900223,475.608154 
	C196.540909,484.636383 220.057083,489.628082 244.166428,491.376953 
	C267.504272,493.069946 290.708160,490.761108 313.504242,485.212311 
	C346.516937,477.176636 376.321411,462.479797 402.969116,441.475861 
	C430.634094,419.670166 452.078430,392.786621 467.446533,361.089020 
	C478.937592,337.388000 485.930115,312.464233 489.222015,286.267609 
	C492.038300,263.855713 491.018280,241.644714 487.279022,219.654358 
	C483.194946,195.635941 475.239380,172.707352 463.641174,151.111191 
	C440.124695,107.323074 406.183563,74.343185 361.761078,52.116772 
	C336.176422,39.315720 309.031799,31.849894 280.630646,29.116131 
	C251.176193,26.280983 222.218887,29.208086 193.745819,37.396893 
	C158.659744,47.487591 127.462799,64.735199 101.238403,89.933678 
	C45.076725,143.898270 20.603754,209.794006 28.957914,287.612823 
	C31.377474,310.150970 37.509308,331.579559 46.542747,353.058838 
z"/>
<path fill="#000000" opacity="1.000000" stroke="none" 
	d="
M284.067017,304.217590 
	C255.743820,319.415344 221.699921,306.375702 211.101242,275.404419 
	C201.056808,246.052826 221.735352,213.579041 252.496094,209.383194 
	C279.602875,205.685760 304.026428,224.522003 308.677216,248.502487 
	C312.920166,270.380035 305.396851,291.479523 284.067017,304.217590 
z"/>
<path fill="#000000" opacity="1.000000" stroke="none" 
	d="
M213.808197,386.428558 
	C198.421341,380.176270 183.707260,373.508484 172.148834,361.675598 
	C169.598938,359.065186 167.509369,360.075867 165.041107,361.287445 
	C147.815201,369.742859 130.229660,370.676025 112.471786,363.259033 
	C92.547684,354.937195 81.613548,339.608734 79.148384,318.377075 
	C77.718086,306.058350 79.252922,293.810547 81.829636,281.710907 
	C82.097427,280.453461 82.124527,278.992798 84.325981,278.626312 
	C86.236862,283.322205 85.690948,288.590637 87.266731,293.368134 
	C90.039734,301.775269 93.339966,309.912994 99.242668,316.710052 
	C101.005188,318.739594 103.006706,320.506775 105.511436,321.564972 
	C107.847046,322.551697 109.255661,321.974060 109.696823,319.211884 
	C111.377785,308.687195 116.618210,300.220551 125.119606,293.887390 
	C127.598663,292.040588 128.462799,290.198151 127.828323,287.153503 
	C127.049492,283.416168 126.737686,279.577179 126.308861,275.772522 
	C125.936447,272.468506 125.952003,269.195343 128.221558,265.033264 
	C131.336685,270.604370 132.229294,275.879547 132.915527,281.152588 
	C133.901077,288.725342 134.049713,289.449371 140.828094,287.011322 
	C156.613647,281.333618 180.120880,296.486267 184.453964,316.573730 
	C187.361282,330.051605 185.110016,341.939514 176.846802,352.751160 
	C174.522202,355.792664 176.396393,357.523285 178.475784,358.849274 
	C189.666779,365.985901 200.337555,374.063873 213.210556,378.217102 
	C220.493713,380.566895 227.778320,382.879272 234.742630,386.178802 
	C240.359070,388.839752 246.461899,387.956543 252.461441,387.444580 
	C259.005127,386.886230 265.635956,385.898438 271.958282,388.871368 
	C271.710510,391.776459 269.629242,391.697296 267.938660,392.071655 
	C262.161041,393.350891 256.277313,393.733032 250.629715,391.939240 
	C241.444809,389.021942 231.899200,389.347595 222.529175,388.129425 
	C219.730652,387.765594 216.974365,387.076874 213.808197,386.428558 
z"/>
<path fill="#000000" opacity="1.000000" stroke="none" 
	d="
M229.102386,96.176758 
	C238.219833,82.504326 250.432846,73.621750 266.264771,70.872971 
	C280.748169,68.358330 294.255402,72.397362 306.892914,79.594582 
	C313.874298,83.570557 320.166321,88.478447 326.254761,93.665260 
	C327.325409,94.577324 328.808716,95.410248 328.280945,97.963173 
	C312.139465,92.247803 295.891235,88.108513 278.921539,96.891228 
	C279.935242,98.478790 280.166687,99.143990 280.631348,99.524055 
	C289.359314,106.663086 294.865479,115.732895 296.751282,126.854904 
	C297.246002,129.772430 298.772308,131.155533 301.126282,132.833694 
	C306.664734,136.782074 312.459229,139.582428 319.182373,140.769516 
	C322.274200,141.315430 325.228912,142.926895 327.541901,145.098953 
	C333.695099,150.877121 341.256256,155.055252 346.490601,161.879196 
	C347.384338,163.044357 348.583374,164.062714 349.827026,164.858780 
	C365.620972,174.968094 373.982422,190.059814 378.682983,207.642487 
	C379.110352,209.241074 379.459381,210.960327 380.316223,212.328247 
	C386.006683,221.413116 387.499084,231.591568 387.918640,241.960983 
	C388.059143,245.433258 389.987122,249.007263 388.101837,252.578400 
	C386.014709,252.160110 386.170929,250.611328 386.102875,249.398880 
	C385.630890,240.988663 382.193848,233.212738 380.779724,225.086197 
	C377.693939,207.353378 365.773682,194.654846 356.905426,180.195862 
	C355.775421,178.353531 354.268066,176.729507 353.244324,174.837250 
	C346.626617,162.605148 336.727051,154.339752 323.710327,149.498352 
	C320.175812,148.183731 316.831268,146.154037 313.871857,143.642105 
	C312.482056,142.462433 311.051056,141.025864 309.392578,140.531448 
	C305.905334,139.491821 302.222473,138.288132 298.680511,138.453156 
	C293.897217,138.675980 295.009796,143.661362 293.816803,146.606033 
	C287.912964,161.178650 271.740112,169.387802 256.498932,167.894318 
	C239.106186,166.189972 226.693253,157.409134 220.324799,140.821701 
	C219.376373,138.351425 217.917984,138.055496 215.638840,138.736710 
	C213.583450,139.351028 211.446045,139.775497 209.314560,140.020340 
	C207.933136,140.179031 206.655258,139.583649 206.278503,138.007645 
	C205.913925,136.482559 206.618454,135.347916 207.944809,134.746475 
	C210.212769,133.718079 212.478806,132.533905 214.876175,131.979050 
	C218.222839,131.204483 219.715469,129.342209 219.645493,126.025276 
	C219.415848,115.138321 223.427322,105.579483 229.102386,96.176758 
z"/>
<path fill="#000000" opacity="1.000000" stroke="none" 
	d="
M323.257812,368.155701 
	C324.911926,367.306213 326.197815,366.290375 327.604584,366.079163 
	C335.397644,364.908905 338.943634,358.411011 343.732361,353.481628 
	C345.240448,351.929199 344.465851,350.444366 343.288635,349.063354 
	C332.301178,336.173584 331.913788,321.890167 339.397064,307.651154 
	C347.420105,292.385254 360.864868,284.884430 378.203522,285.058868 
	C381.035706,285.087341 382.018250,284.060303 382.821991,281.766022 
	C384.058716,278.235748 384.863190,274.483307 387.379395,270.848053 
	C390.097626,275.256714 389.198395,279.451569 388.786438,283.406250 
	C388.479248,286.355011 389.308441,287.982056 391.730591,289.531525 
	C402.769989,296.593597 411.268250,305.825989 416.691895,317.975922 
	C428.948700,345.433472 420.427032,374.036530 394.844788,390.118988 
	C385.464630,396.015869 375.205139,399.867340 364.606201,402.898651 
	C363.478027,403.221344 362.350647,403.545563 361.169739,402.682434 
	C360.938324,400.244446 363.218109,400.078125 364.551056,399.108246 
	C375.878052,390.866272 384.772095,380.812195 388.295959,366.862305 
	C389.778931,360.991547 388.570618,359.949738 382.774628,361.553589 
	C373.208832,364.200531 363.806488,363.575134 355.226929,358.615234 
	C350.705231,356.001190 347.943359,357.485718 344.821533,360.428314 
	C333.154327,371.425568 319.823547,379.621063 304.468231,384.493713 
	C299.638672,386.026276 294.665131,385.787781 289.686584,386.415588 
	C300.948608,380.646973 312.204437,374.975677 323.257812,368.155701 
z"/>
<path fill="#000000" opacity="1.000000" stroke="none" 
	d="
M153.598618,187.614838 
	C144.057968,202.285309 137.811081,217.968628 133.557709,234.509369 
	C132.700134,237.844376 131.850494,241.226639 129.458405,244.150360 
	C120.260696,226.600433 151.894897,163.326874 170.969711,162.669876 
	C166.337936,172.129684 159.079697,179.079391 153.598618,187.614838 
z"/>
</svg>